<svg xmlns="http://www.w3.org/2000/svg" id="Capa_1" data-name="Capa 1" viewBox="0 0 672.8 637.71"><defs><style>.cls-1,.cls-2{fill:#fff;}.cls-2{font-size:85.26px;font-family:FranklinGothic-Medium, Franklin Gothic Medium;font-weight:500;}.cls-3{letter-spacing:0em;}.cls-4{letter-spacing:0em;}</style></defs><path class="cls-1" d="M329.85,368.32a145,145,0,0,1-12.32-15.68,7.67,7.67,0,0,0-6.33-3.39H210.44a15.15,15.15,0,0,1-15.15-15.15V295.3a15.15,15.15,0,0,1,15.15-15.15h72.18a7.59,7.59,0,0,0,7.56-8.27q-.92-10.1-.93-20.77,0-10,.78-19.52a7.58,7.58,0,0,0-7.56-8.22h-72a15.15,15.15,0,0,1-15.15-15.15V179.43a15.15,15.15,0,0,1,15.15-15.15h93.07a7.67,7.67,0,0,0,6.72-4,143.9,143.9,0,0,1,26.58-35.38,7.66,7.66,0,0,0-1-11.93A52.37,52.37,0,0,0,306.58,104H142.31a15.15,15.15,0,0,0-15.15,15.15V394.34a15.15,15.15,0,0,0,15.15,15.15H306.58a52.52,52.52,0,0,0,38.57-16.8,7.55,7.55,0,0,0-1-11A123.83,123.83,0,0,1,329.85,368.32Z"></path><ellipse class="cls-1" cx="508.99" cy="377.55" rx="34.18" ry="30.19"></ellipse><path class="cls-1" d="M461.4,378.8c0-11.05,5.23-21.05,13.7-28.34q-38.12-.58-60.39-25.12-22.81-25.15-22.82-68.8,0-42.72,22.52-68.35t59.86-25.61q21.75,0,39,7.85l.34.16c13.69,6.34,29.59-2.87,29.59-17.48v-23a7.25,7.25,0,0,0-3.77-6.34,162.85,162.85,0,0,0-36.63-14.71,173.65,173.65,0,0,0-44.66-5.55q-40.25,0-70.05,18.32a118.05,118.05,0,0,0-11.93,8.46q-20.94,16.71-35.26,43.5c-.37.69-.77,1.34-1.13,2a153.44,153.44,0,0,0-13.19,37.57q-1.85,8.38-2.91,17.18a217.85,217.85,0,0,0-1.6,26.66,211.16,211.16,0,0,0,1.82,27.9,168.64,168.64,0,0,0,8.36,35,144.88,144.88,0,0,0,15.84,31.42,140.27,140.27,0,0,0,14.58,18.33,121.4,121.4,0,0,0,20.43,17.22,126.66,126.66,0,0,0,23.65,12.38q25.61,10.17,56,10.17c5.13,0,10.08-.2,14.91-.57C467.7,401.73,461.4,390.9,461.4,378.8Z"></path><text class="cls-2" transform="translate(120.87 526.5)">Eric Con<tspan class="cls-3" x="296.52" y="0">c</tspan><tspan class="cls-4" x="336.65" y="0">ha</tspan></text></svg>